<?xml version="1.0" encoding="UTF-8" standalone="no"?>
<!-- Created with Inkscape (http://www.inkscape.org/) -->

<svg
   width="43.824532mm"
   height="64.300003mm"
   viewBox="0 0 43.824532 64.300003"
   version="1.1"
   id="svg5"
   inkscape:version="1.1 (c68e22c387, 2021-05-23)"
   sodipodi:docname="toiletIcon.svg"
   xmlns:inkscape="http://www.inkscape.org/namespaces/inkscape"
   xmlns:sodipodi="http://sodipodi.sourceforge.net/DTD/sodipodi-0.dtd"
   xmlns="http://www.w3.org/2000/svg"
   xmlns:svg="http://www.w3.org/2000/svg">
  <sodipodi:namedview
     id="namedview7"
     pagecolor="#ffffff"
     bordercolor="#666666"
     borderopacity="1.0"
     inkscape:pageshadow="2"
     inkscape:pageopacity="0.0"
     inkscape:pagecheckerboard="0"
     inkscape:document-units="mm"
     showgrid="false"
     inkscape:snap-global="false"
     inkscape:zoom="1.0289025"
     inkscape:cx="-199.72737"
     inkscape:cy="115.17126"
     inkscape:window-width="1734"
     inkscape:window-height="1003"
     inkscape:window-x="0"
     inkscape:window-y="8"
     inkscape:window-maximized="0"
     inkscape:current-layer="layer2"
     fit-margin-top="0"
     fit-margin-left="0"
     fit-margin-right="0"
     fit-margin-bottom="0" />
  <defs
     id="defs2" />
  <g
     inkscape:label="Layer 1"
     inkscape:groupmode="layer"
     id="layer1"
     style="display:inline"
     transform="translate(-101.38865,-138.46184)">
    <ellipse
       style="fill:#ff00ff;stroke-width:0.264583"
       id="path396"
       cx="123.30091"
       cy="161.26244"
       rx="21.912266"
       ry="22.8006" />
    <rect
       style="fill:#ff00ff;stroke-width:0.264583"
       id="rect582"
       width="1.7766702"
       height="26.294718"
       x="122.35336"
       y="175.7719" />
    <ellipse
       style="fill:#ff00ff;stroke-width:0.264583"
       id="path713"
       cx="123.24168"
       cy="201.29674"
       rx="2.9018984"
       ry="1.3621109" />
    <ellipse
       style="fill:#ff00ff;stroke-width:0.264583"
       id="path715"
       cx="124.0708"
       cy="201.7113"
       rx="0.41455638"
       ry="0.11844468" />
  </g>
  <g
     inkscape:groupmode="layer"
     id="layer2"
     inkscape:label="Layer 2"
     style="display:inline"
     transform="translate(-101.38865,-138.46184)">
    <path
       d="m 117.06272,151.63157 c 0,-0.26723 0.21696,-0.48154 0.48154,-0.48154 0.26723,0 0.48155,0.21696 0.48155,0.48154 v 8.81857 c 0,0.26722 -0.21697,0.48154 -0.48155,0.48154 h -5.70971 c -0.26458,0.003 -0.48154,-0.21432 -0.48154,-0.4789 v -14.39069 c 0,-0.2831 0.11642,-0.54239 0.30427,-0.73289 l 0.003,-0.003 c 0.1905,-0.18521 0.44714,-0.30162 0.73289,-0.30162 h 4.59581 c 0.28311,0 0.54505,0.11641 0.7329,0.30691 v 0 c 0.18786,0.18786 0.30428,0.44715 0.30428,0.7329 v 1.22237 c 0,0.26723 -0.21697,0.48155 -0.48155,0.48155 -0.26723,0 -0.48154,-0.21696 -0.48154,-0.48155 v -1.22502 c 0,-0.0185 -0.008,-0.037 -0.0212,-0.0529 v 0 0 c -0.0132,-0.0132 -0.0317,-0.0212 -0.0529,-0.0212 h -4.59581 c -0.0212,0 -0.0397,0.008 -0.0529,0.0212 l -0.003,0.003 c -0.0132,0.0132 -0.0212,0.0317 -0.0212,0.0529 v 13.9065 h 4.74663 z m -0.003,19.81994 -5.6515,-10.77648 c -0.12171,-0.23548 -0.0317,-0.52387 0.20373,-0.64823 0.0714,-0.037 0.14816,-0.0556 0.22225,-0.0556 v -0.003 h 25.01107 c 0.26723,0 0.48155,0.21696 0.48155,0.48154 0,0.0185 0,0.037 -0.003,0.0556 -0.13494,5.75204 -2.9554,7.37129 -5.32871,8.73125 -1.38642,0.7964 -2.60086,1.49225 -2.8284,2.96598 l -0.003,0.0132 c -0.0873,0.57679 -0.0397,1.23825 0.14288,1.98702 0.1905,0.78052 0.52652,1.65894 1.016,2.63525 0.11906,0.23813 0.0212,0.52652 -0.21696,0.64559 -0.0688,0.0344 -0.14288,0.0503 -0.21431,0.0503 h -15.09723 c -0.26723,0 -0.48154,-0.21696 -0.48154,-0.48155 0,-0.0926 0.0265,-0.17991 0.0741,-0.254 z m -4.42912,-10.51719 5.39486,10.28965 c 0.0688,0.13229 0.0741,0.29369 0.003,0.43656 l -2.45535,4.91331 h 13.55726 c -0.34395,-0.76464 -0.59531,-1.47902 -0.7567,-2.14048 -0.21432,-0.87841 -0.26723,-1.66422 -0.1614,-2.35743 l 0.003,-0.0159 c 0.29898,-1.93146 1.70127,-2.73579 3.302,-3.6539 2.0955,-1.20121 4.57465,-2.62467 4.83129,-7.46919 h -23.71721 z m 4.96887,10.99344 c -0.26723,0 -0.48154,-0.21696 -0.48154,-0.48154 0,-0.26723 0.21696,-0.48154 0.48154,-0.48154 h 5.26257 c 0.26723,0 0.48155,0.21696 0.48155,0.48154 0,0.26723 -0.21696,0.48154 -0.48155,0.48154 z m 0.42335,-11.40354 c -0.0397,0.26194 -0.28576,0.4445 -0.5477,0.40481 -0.26194,-0.0397 -0.4445,-0.28575 -0.40481,-0.54769 0.0767,-0.49741 0.20108,-0.9472 0.3757,-1.34143 0.18257,-0.41011 0.41806,-0.75671 0.70645,-1.03982 0.93663,-0.91545 2.12725,-0.89429 3.26496,-0.87312 0.10054,0.003 0.19844,0.003 0.45508,0.003 h 10.30817 c 2.44475,-0.0159 5.15408,-0.0344 5.14085,3.43958 0,0.26459 -0.21431,0.4789 -0.47889,0.4789 -0.26459,0 -0.4789,-0.21431 -0.4789,-0.4789 0.0106,-2.50825 -2.19075,-2.49237 -4.17512,-2.47914 -0.29898,0.003 -0.29104,0.005 -0.46832,0.005 h -9.84514 l -0.47096,-0.008 c -0.94192,-0.0159 -1.92881,-0.0344 -2.57969,0.60325 -0.20373,0.19844 -0.36777,0.4445 -0.50006,0.73819 -0.13758,0.30691 -0.23812,0.67204 -0.30162,1.09537 z m -2.6141,-12.5439 c 0.74877,0 1.35467,0.6059 1.35467,1.35467 0,0.74877 -0.6059,1.35467 -1.35467,1.35467 -0.74877,0 -1.35466,-0.6059 -1.35466,-1.35467 0,-0.74877 0.60854,-1.35467 1.35466,-1.35467 z m 1.35467,1.83621 c -0.26723,0 -0.48154,-0.21696 -0.48154,-0.48154 0,-0.26723 0.21696,-0.48154 0.48154,-0.48154 h 3.24909 c 0.26723,0 0.48154,0.21696 0.48154,0.48154 0,0.26723 -0.21695,0.48154 -0.48154,0.48154 z"
       id="path78"
       style="stroke-width:0.264583" />
  </g>
</svg>
